<?xml version="1.0" encoding="utf-8"?>
<!-- Generator: Adobe Illustrator 24.0.3, SVG Export Plug-In . SVG Version: 6.00 Build 0)  -->
<svg version="1.1" id="Layer_1" xmlns="http://www.w3.org/2000/svg" xmlns:xlink="http://www.w3.org/1999/xlink" x="0px" y="0px"
	 viewBox="0 0 400 62" style="enable-background:new 0 0 400 62;" xml:space="preserve">
<g>
	<path d="M106.7,29.7V0.9h16.6c4,0,8.2,0.2,10.4,1.1c3.5,1.4,5.4,4.3,5.4,8.2c0,2.5-0.8,4.5-2.4,6c-1.1,1-2.5,1.8-4.3,2.4l8.1,11.1
		h-13.4l-5.9-9.5h-2.5v9.5H106.7z M123.5,12.6c1,0,1.7-0.1,2.2-0.3c0.8-0.3,1.1-1.1,1.1-1.9c0-0.8-0.3-1.4-1-1.8
		c-0.5-0.2-1.3-0.3-2.3-0.3h-4.8v4.3H123.5z"/>
	<path d="M140.5,29.7l12.9-28.8h14.2l12.1,28.8h-12.9l-1.5-4.1h-10.7l-1.4,4.1H140.5z M163.2,18.6c-1.3-3.8-2.2-6.7-3.1-9.4
		c-0.8,2.7-1.8,5.6-3.3,9.4H163.2z"/>
	<path d="M181.7,29.7V0.9h16.8c1.9,7.3,3.8,14,4.6,17.6c0.7-3.5,2-8.5,4.5-17.6h16.6v28.8H213c0-7.1,0-12,0.3-18.9
		c-1.1,3.7-2.3,8-5.6,18.9h-9.5c-2-6.4-3.8-12.7-5.6-19.3c0.1,3.6,0.3,7.3,0.3,19.3H181.7z"/>
	<path d="M227.9,29.7V0.9h27.8v7.5h-16.1v2.9h15.1v7.5h-15.1v3.5h16.9v7.5H227.9z"/>
	<path d="M259.2,29.7V0.9h13.5c3.1,4.9,6.3,10.1,9.1,15.1c-0.2-3.3-0.2-6.1-0.2-15.1h11.8v28.8h-13.1c-3.2-5.1-6.4-10-9.4-15
		c0.1,2.6,0.1,6.1,0.1,15H259.2z"/>
	<path d="M1.9,61V32.2h12v9.2l8.6-9.2h14.6L25.6,43.6l12,17.4h-14l-6.2-9.7l-3.4,3.5V61H1.9z"/>
	<path d="M38.5,61l12.9-28.8h14.2L77.7,61H64.8l-1.5-4.1H52.7L51.2,61H38.5z M61.1,49.9c-1.3-3.8-2.2-6.7-3.1-9.4
		c-0.8,2.7-1.8,5.6-3.3,9.4H61.1z"/>
	<path d="M79.6,61V32.2h12V54h12.2v7H79.6z"/>
	<path d="M106.5,61V32.2h27.8v7.5h-16.1v2.9h15.1v7.5h-15.1v3.5h16.9V61H106.5z"/>
	<path d="M137.8,61V32.2h12.1V61H137.8z"/>
	<path d="M153.6,32.2h13.3c6.3,0,10.1,0.4,12.8,1.7c4.4,2,7.1,6.5,7.1,12.6c0,6.4-3.2,11.8-9.2,13.5c-2.8,0.8-5.5,1.1-11.2,1.1
		h-12.8V32.2z M167,53c2.6,0,4.4-0.2,5.6-1.2c1.4-1.1,2-2.9,2-5.6c0-2.5-0.6-4.1-1.9-5.1c-1.2-0.9-2.9-1-5.1-1h-2V53H167z"/>
	<path d="M207.7,61.8c-11.3,0-18.7-5.3-18.7-15.2c0-9.5,7.2-15.2,18.7-15.2c11.3,0,18.2,5.4,18.2,15.2
		C225.9,57.4,217.8,61.8,207.7,61.8z M207.5,39.9c-3.6,0-6.4,2-6.4,6.6c0,4.7,2.9,6.8,6.4,6.8c3.3,0,6-1.7,6-6.9
		C213.6,41.9,211,39.9,207.5,39.9z"/>
	<path d="M234.6,50.2c2,2.1,5.6,3.6,8.1,3.6c2,0,2.7-0.4,2.7-1.1c0-0.7-0.2-1.1-3.3-2l-4.8-1.2c-5.9-1.6-8.6-4.5-8.6-8.9
		c0-5.8,5.7-9.1,14.2-9.1c6.4,0,11.6,1.8,14.8,4.8l-6.9,6c-2.4-2.1-5.6-3-7.7-3c-1.9,0-2.4,0.5-2.4,1.1c0,0.6,0.4,1.1,2.9,1.7
		l4.9,1.2c6.4,1.6,9.5,4.4,9.5,9c0,5.9-5.5,9.6-15.3,9.6c-7.2,0-12.6-2.2-15.6-5.2L234.6,50.2z"/>
	<path d="M277.6,61.8c-10.7,0-17.5-5.2-17.5-15.3c0-9.7,6.9-15.1,18-15.1c8,0,13.3,4,14.9,9.3L282.7,43c-0.6-2-2.2-3-4.7-3
		c-2.8,0-5.7,1.8-5.7,6.6c0,5.4,2.7,6.8,5.8,6.8c2.2,0,4-1,4.5-3.6l11.1,2.4C291.4,58.1,286.2,61.8,277.6,61.8z"/>
	<path d="M314.1,61.8c-11.3,0-18.7-5.3-18.7-15.2c0-9.5,7.2-15.2,18.7-15.2c11.3,0,18.2,5.4,18.2,15.2
		C332.3,57.4,324.2,61.8,314.1,61.8z M313.9,39.9c-3.6,0-6.4,2-6.4,6.6c0,4.7,2.9,6.8,6.4,6.8c3.3,0,6-1.7,6-6.9
		C320,41.9,317.4,39.9,313.9,39.9z"/>
	<path d="M335.3,61V32.2H350c7.6,0,10.4,0.5,12.4,1.4c3.3,1.3,5.3,4.4,5.3,8.5c0,3.6-1.7,6.7-4.8,8.3c-2.4,1.3-5.8,1.9-9.7,1.9h-6
		V61H335.3z M350.8,45c1.7,0,2.9-0.1,3.7-0.6c0.7-0.4,1-1.3,1-2.1c0-0.7-0.2-1.4-0.8-1.9c-0.7-0.6-1.6-0.7-3.7-0.7h-3.8V45H350.8z"
		/>
	<path d="M370.6,61V32.2h27.8v7.5h-16.1v2.9h15.1v7.5h-15.1v3.5h16.9V61H370.6z"/>
</g>
</svg>
