<?xml version="1.0" encoding="utf-8"?>
<!-- Generator: Adobe Illustrator 24.0.3, SVG Export Plug-In . SVG Version: 6.00 Build 0)  -->
<svg version="1.1" id="Layer_1" xmlns="http://www.w3.org/2000/svg" xmlns:xlink="http://www.w3.org/1999/xlink" x="0px" y="0px"
	 viewBox="0 0 100 101.3" style="enable-background:new 0 0 100 101.3;" xml:space="preserve">
<style type="text/css">
	.st0{fill:#FFFFFF;}
</style>
<g>
	<g>
		<path class="st0" d="M84.5,94.9c-1.2,1.3-2.9,1.9-4.5,1.9c-1.6,0-3.3-0.6-4.5-1.9c-2.5-2.6-2.5-6.7,0-9.3c14-14.5,14-38.1,0-52.6
			c-14-14.5-36.9-14.5-50.9,0l-2.3,2.4h15.2c3.5,0,6.4,2.9,6.4,6.6c0,3.6-2.9,6.6-6.4,6.6h-30c-3.5,0-6.4-2.9-6.4-6.6V11
			c0-3.6,2.9-6.6,6.4-6.6s6.4,2.9,6.4,6.6v14.5l1.7-1.8c19-19.6,49.9-19.6,68.9,0S103.5,75.3,84.5,94.9z"/>
	</g>
</g>
</svg>
